Simulation
nRows=49
nColumns=15
endheader
time  TH_x TH_y TH_z SC_y  SC_z  SC_x  AC_y  AC_z  AC_x  GH_y  GH_z  GH_yy  EL_x  PS_y
0.75  0.000000  0.000000  0.000000  -33.88716701593569  2.176964741334135  20.017970538751975  60.99487809856309  1.9463831922928307  -12.765247347572794  20.53891680152878  45.43741562357544  -17.412274258925642  19.952064230393415  0.000000
0.765  0.000000  0.000000  0.000000  -34.053747522007015  2.322687839651865  20.269010958504964  61.09329683993172  2.3232046868665237  -12.677731955690787  20.611233812139186  45.94400667794276  -17.746941695096492  19.748206578954264  0.000000
0.78  0.000000  0.000000  0.000000  -34.23148404873394  2.4738887677958186  20.52887452871788  61.193439213016305  2.693922301093501  -12.577496461044834  20.69186716847504  46.43133581359807  -18.08093407612755  19.543227743373244  0.000000
0.7949999999999999  0.000000  0.000000  0.000000  -34.4192827519106  2.629359809350289  20.794667127101885  61.29550306833189  3.0530975071884083  -12.465402014783114  20.77788424185786  46.9070375037346  -18.414117239236255  19.337555553985307  0.000000
0.8099999999999999  0.000000  0.000000  0.000000  -34.62014495524545  2.788527962148147  21.070279237383712  61.402389266191825  3.402117067465815  -12.339714168083509  20.87042650291558  47.3643452008782  -18.746636415663655  19.131295088256234  0.000000
0.825  0.000000  0.000000  0.000000  -34.833212150269965  2.950334103574154  21.353007257525103  61.51453738497263  3.7359273441357366  -12.201401010589189  20.966871186146726  47.81010032295792  -19.07827681636701  18.92507176990248  0.000000
0.84  0.000000  0.000000  0.000000  -35.06023424401659  3.113956573727674  21.646106275393755  61.63392182545081  4.055856184451302  -12.049479724757006  21.06815928054611  48.238535039823844  -19.409023723897917  18.71905520906184  0.000000
0.855  0.000000  0.000000  0.000000  -35.29938316912236  3.278080509647316  21.9467465856217  61.76118253165546  4.358197173541954  -11.885679636735805  21.171272920521147  48.65548524571605  -19.73872767167553  18.513699873851554  0.000000
0.87  0.000000  0.000000  0.000000  -35.551746605036016  3.441547615534325  22.25761617405196  61.897170549993895  4.644708764471544  -11.709890351526186  21.277426241277563  49.05587189321141  -20.066679833921622  18.309605024276152  0.000000
0.885  0.000000  0.000000  0.000000  -35.815144448879344  3.602942401324696  22.575457960327515  62.04181252668638  4.913296028883232  -11.52475054370671  21.384283598131983  49.44475236264625  -20.392457013995028  18.107532598149724  0.000000
0.8999999999999999  0.000000  0.000000  0.000000  -36.08972674994075  3.7610095738619123  22.902049370389044  62.19450276202084  5.166479945322491  -11.331098600225179  21.49339214612057  49.81760606204666  -20.7150938939878  17.908441847164852  0.000000
0.9149999999999999  0.000000  0.000000  0.000000  -36.37301587087158  3.9144733009529347  23.233649410418856  62.35436078059201  5.4035586060221235  -11.131937949684623  21.602926447038246  50.17874238928991  -21.033921247192982  17.71311937010897  0.000000
0.9299999999999999  0.000000  0.000000  0.000000  -36.664445892463505  4.0622709381196875  23.5712120943702  62.51988052967165  5.627449275448653  -10.92857828954037  21.714272521565473  50.524134462188485  -21.347772536421957  17.522780333147825  0.000000
0.945  0.000000  0.000000  0.000000  -36.96164941401692  4.203268878391637  23.911109056258898  62.69014354243428  5.837814716243893  -10.723817608064252  21.825710493341067  50.857570436603886  -21.656142825843755  17.33758721385326  0.000000
0.96  0.000000  0.000000  0.000000  -37.26408041306734  4.336692886655916  24.253836479016655  62.86357988104474  6.037159705852924  -10.51832255545218  21.938640841202442  51.17587606827022  -21.95765515587916  17.15828015422853  0.000000
0.975  0.000000  0.000000  0.000000  -37.56857544216623  4.462116895712108  24.595704355257713  63.03952209600528  6.225375985527141  -10.31443619945071  22.05066931523856  51.482474566359194  -22.251839796656938  16.98646482714041  0.000000
0.99  0.000000  0.000000  0.000000  -37.874047253350376  4.579296440375606  24.937397446335723  63.217126190421126  6.404240290971883  -10.11219337955828  22.162184217654502  51.77447968306508  -22.53695477999771  16.822949590087237  0.000000
1.005  0.000000  0.000000  0.000000  -38.1780930880331  4.688003678286635  25.275934924762467  63.396156115736915  6.57313591752821  -9.91315519661496  22.27102654324247  52.05488221053287  -22.812427810210686  16.668201524494123  0.000000
1.02  0.000000  0.000000  0.000000  -38.48008157251501  4.7882709379122  25.611818537179833  63.57541281387252  6.733278268419079  -9.717537273121895  22.377730372876595  52.321183127808  -23.07673961655712  16.522950067647788  0.000000
1.035  0.000000  0.000000  0.000000  -38.77850134561281  4.880342270235122  25.941559899029965  63.75459138943117  6.88403097271759  -9.526097984623945  22.4798636167649  52.57605942645049  -23.329479267599513  16.38728897390137  0.000000
1.05  0.000000  0.000000  0.000000  -39.072618049276535  4.964596103958749  26.265096491242815  63.932041444066854  7.026146404622131  -9.338642003088026  22.57657554893022  52.817183807614484  -23.56920187409406  16.26152932307672  0.000000
1.065  0.000000  0.000000  0.000000  -39.35991576237601  5.041577490779409  26.580336446506994  64.10679449244965  7.158735385214524  -9.157173536367775  22.66460469990757  53.04610676843715  -23.795409785336307  16.146065256915936  0.000000
1.08  0.000000  0.000000  0.000000  -39.6401712360205  5.1114183059981615  26.887631994576765  64.27783668109116  7.2823358640074165  -8.981581511232054  22.744008605848382  53.26117221497004  -24.006891597586527  16.04058210208325  0.000000
1.095  0.000000  0.000000  0.000000  -39.9124732979592  5.174038426352599  27.18476996722685  64.44562444135423  7.396332365175535  -8.813062773790602  22.812942793183915  53.46476552327299  -24.203628304711348  15.94503945772685  0.000000
1.1099999999999999  0.000000  0.000000  0.000000  -40.17604439901413  5.229779811523176  27.471504389632567  64.6085121255546  7.501469926718321  -8.65164335737723  22.871068649323725  53.65565492353305  -24.384404248604554  15.86005283797674  0.000000
1.125  0.000000  0.000000  0.000000  -40.428893680164904  5.279368155358857  27.74598816499143  64.76574229492485  7.597256795756694  -8.498587439564234  22.91587610199012  53.83537925607652  -24.549001539216814  15.78582114806331  0.000000
1.14  0.000000  0.000000  0.000000  -40.67024589794258  5.323390630372056  28.008056920108892  64.91589944225558  7.684265478365514  -8.353569144757492  22.947277563302666  54.003130729390804  -24.696662435924285  15.72229101552665  0.000000
1.155  0.000000  0.000000  0.000000  -40.89896234460645  5.362366037425104  28.256249593275516  65.0590458963747  7.762434410156805  -8.217314441673164  22.964367006840302  54.160636978416434  -24.827627115412184  15.66951217026463  0.000000
1.17  0.000000  0.000000  0.000000  -41.11445523252886  5.396761443816612  28.490556599486183  65.19416445556126  7.832533345382385  -8.089585120812375  22.968372857509763  54.30777837406867  -24.941589988473293  15.627706053600614  0.000000
1.185  0.000000  0.000000  0.000000  -41.31534981749465  5.427345106585949  28.71000295616667  65.32094500222647  7.8947935293370355  -7.9710220282946285  22.95912589267978  54.4459506396693  -25.03893972463048  15.597188021836837  0.000000
1.2  0.000000  0.000000  0.000000  -41.500749349305295  5.455758295539588  28.914749892901238  65.43758802078969  7.9493874658156916  -7.860933491067286  22.93781944806394  54.57493427298398  -25.11965760979381  15.578364306579612  0.000000
1.2149999999999999  0.000000  0.000000  0.000000  -41.66952397579686  5.482665058011025  29.104417174732674  65.54391413943459  7.996276338412553  -7.759645479992034  22.904584181224173  54.69598610375324  -25.184755262129705  15.571076867027616  0.000000
1.23  0.000000  0.000000  0.000000  -41.821744832306514  5.508580858988829  29.27901497515816  65.63848018824751  8.036503419369593  -7.666613720384204  22.861732793429937  54.8090317693935  -25.234743331311236  15.575574677516943  0.000000
1.2449999999999999  0.000000  0.000000  0.000000  -41.95984661042119  5.533739195050909  29.43632132777771  65.72279387737177  8.072135907633315  -7.5815602235708806  22.810921922728618  54.915052482766505  -25.271625735774194  15.59176763766965  0.000000
1.26  0.000000  0.000000  0.000000  -42.08574173304352  5.557639916377755  29.575188099785194  65.79597076289713  8.104953250510148  -7.5033724784790845  22.75409088720591  55.01374991076314  -25.296389835726412  15.619354775498033  0.000000
1.275  0.000000  0.000000  0.000000  -42.197849922455774  5.58030196862125  29.694886579027923  65.85837965422503  8.13637635458159  -7.434349887872071  22.68975135340029  55.104153934578044  -25.311934677961  15.656316866872896  0.000000
1.29  0.000000  0.000000  0.000000  -42.29515113826331  5.6018006110959035  29.795139911623934  65.90815629552887  8.167042178197175  -7.37463888379313  22.61812122115051  55.18398266152852  -25.320068246231408  15.70073497487174  0.000000
1.305  0.000000  0.000000  0.000000  -42.378542940164714  5.62094209473854  29.874461209455802  65.94732208798281  8.198567308691892  -7.325803868054055  22.540602970805693  55.250894598575634  -25.32443583727356  15.750229461242483  0.000000
1.3199999999999998  0.000000  0.000000  0.000000  -42.44875095799085  5.6367784834943615  29.931096690933668  65.97448828000041  8.232040267137355  -7.287564325281594  22.462143671689994  55.301055898246474  -25.327719126001004  15.804194999439543  0.000000
1.335  0.000000  0.000000  0.000000  -42.50545759077973  5.648439047734997  29.962716219682846  65.99087015876205  8.269670937331703  -7.262465112078323  22.389012847023764  55.32876193187763  -25.33355204175681  15.860664630564358  0.000000
1.3499999999999999  0.000000  0.000000  0.000000  -42.546675794629  5.655379017231287  29.96662776801325  65.99363355308242  8.311579618471919  -7.250796984763675  22.330026103819012  55.326915090140865  -25.34539239425311  15.91978795028166  0.000000
1.365  0.000000  0.000000  0.000000  -42.56939235126441  5.657514856861514  29.93997767460491  65.98217661546272  8.358857839851277  -7.255709626563449  22.296718268583103  55.28540233532197  -25.36625300634535  15.9792804443306  0.000000
1.38  0.000000  0.000000  0.000000  -42.56883242686413  5.653727925488686  29.879283365437608  65.95192505422835  8.410680622992059  -7.28044767011473  22.303993035863375  55.19274594365028  -25.40100973609724  16.041522358773708  0.000000
1.395  0.000000  0.000000  0.000000  -42.547041592383295  5.643398954084109  29.780624437393108  65.90117981612826  8.465229033693266  -7.327555127245578  22.37452621322971  55.035612497272616  -25.44990971377109  16.106033037137916  0.000000
1.41  0.000000  0.000000  0.000000  -42.504109482383214  5.617916105938117  29.63975753462897  65.83619340695395  8.51436479436434  -7.40440608437478  22.523226917488948  54.80597570159899  -25.523649439351694  16.175244621571306  0.000000
1.425  0.000000  0.000000  0.000000  -42.42180684749472  5.5694813011288655  29.449778568235885  65.74659691907662  8.561325282131335  -7.508268339247444  22.76289946067702  54.48358629362753  -25.615369389077284  16.243892281510693  0.000000
1.44  0.000000  0.000000  0.000000  -42.268876184736676  5.51481142735303  29.18499184395161  65.6380735647339  8.614713377876045  -7.633582715709199  23.08764109635267  54.045548489868445  -25.744440248516813  16.295725251213394  0.000000
1.4549999999999998  0.000000  0.000000  0.000000  -42.03000371890534  5.436040522151578  28.830622952785916  65.49451228840043  8.68931591981398  -7.778877096393048  23.52599415454611  53.467236860421714  -25.880044324161986  16.342674002335183  0.000000
1.47  0.000000  0.000000  0.000000  -41.72283978701012  5.289650360692477  28.37732481568773  65.35370639139144  8.790918976299693  -7.9999917763158095  24.122662650289982  52.74813943056703  -26.02315083771402  16.414416834711435  0.000000
